<svg width="235" height="157" viewBox="0 0 235 157" fill="none" xmlns="http://www.w3.org/2000/svg">
<path d="M135.091 0.0397988C135.406 -0.0261882 135.724 -0.00982081 136.031 0.0866738L136.588 0.261478C136.773 0.319655 136.958 0.376926 137.142 0.43433L137.417 0.520268L137.693 0.607182C137.749 0.624521 137.803 0.627562 137.868 0.613041L138.156 0.548588L138.443 0.485111C138.714 0.424597 138.99 0.408753 139.265 0.442143L139.824 0.509525C140.11 0.544259 140.382 0.634252 140.635 0.771244L141.162 1.05738C141.21 1.08349 141.245 1.08748 141.282 1.08374L141.858 1.02613C142.138 0.998044 142.416 1.01909 142.688 1.09156L142.959 1.1648L143.231 1.23706C143.281 1.25025 143.346 1.25526 143.439 1.23316L144.044 1.09058C144.396 1.0072 144.749 1.04959 145.063 1.22144L145.195 1.30347L145.695 1.6482C145.749 1.68522 145.79 1.69499 145.829 1.69605L146.117 1.70386L146.406 1.7107C146.798 1.72131 147.141 1.87899 147.415 2.13257L147.879 2.56031C147.93 2.60763 147.958 2.61248 147.971 2.61402L148.535 2.67945C148.806 2.71116 149.067 2.78766 149.313 2.90699L149.82 3.15406C149.822 3.15468 149.825 3.15631 149.832 3.15699C149.842 3.15785 149.867 3.15742 149.909 3.1482L150.231 3.07788L150.555 3.00855C150.894 2.93448 151.248 2.94579 151.587 3.08667L152.109 3.30347C152.341 3.40007 152.56 3.52582 152.764 3.67652L152.998 3.84937L153.232 4.0232C153.338 4.10113 153.446 4.16096 153.558 4.20484L153.819 4.30738L154.081 4.41187C154.316 4.50443 154.536 4.62581 154.741 4.77515L154.974 4.9441L155.205 5.11304C155.236 5.13547 155.275 5.15294 155.343 5.15699L155.95 5.19214C156.249 5.20964 156.537 5.28434 156.805 5.42163L157.309 5.67945C157.596 5.82729 157.83 6.04324 158.013 6.30347L158.192 6.56031L158.344 6.77515L158.605 6.78882L158.921 6.80347C159.249 6.81957 159.566 6.91247 159.848 7.09839L160.085 7.25367L160.32 7.40894C160.465 7.50441 160.613 7.59686 160.764 7.68335L161.008 7.823L161.253 7.9646C161.529 8.12318 161.751 8.3437 161.921 8.60718L162.255 9.12378C162.281 9.16387 162.297 9.17143 162.314 9.17749L162.589 9.27417L162.865 9.37085C163.134 9.46523 163.379 9.60557 163.595 9.79175L164.023 10.1609C164.2 10.3133 164.362 10.4812 164.511 10.6638L164.692 10.8884L164.874 11.1121C164.878 11.1175 164.882 11.1192 164.885 11.1209C164.889 11.1233 164.903 11.1304 164.934 11.1365L165.243 11.2L165.554 11.2615C165.91 11.3337 166.233 11.5102 166.476 11.8035L166.842 12.2468C166.936 12.3601 167.037 12.4622 167.146 12.5535L167.577 12.9158C167.795 13.0992 167.974 13.3203 168.111 13.5701L168.254 13.8289L168.396 14.0886C168.461 14.2051 168.533 14.3023 168.613 14.3835L169.006 14.783C169.048 14.8261 169.111 14.8703 169.212 14.906L169.506 15.0095L169.8 15.115C170.143 15.2367 170.434 15.4561 170.632 15.7771L170.783 16.0222L170.935 16.2683C171.04 16.4397 171.143 16.6129 171.242 16.7878L171.526 17.2888C171.584 17.3901 171.652 17.4771 171.732 17.5515L172.146 17.9343C172.267 18.0475 172.396 18.157 172.53 18.2625L172.756 18.4402L172.982 18.6169C173.199 18.7864 173.383 18.9881 173.531 19.2195L173.684 19.4587L173.836 19.697C173.964 19.8973 174.072 20.1104 174.161 20.3337L174.269 20.6043L174.367 20.8513C174.371 20.8532 174.375 20.8567 174.381 20.8591L174.684 20.988L174.986 21.115C175.324 21.2578 175.616 21.4965 175.795 21.8455L176.057 22.3523C176.194 22.62 176.269 22.91 176.293 23.2097L176.317 23.5291L176.333 23.7136L176.545 23.8025L176.86 23.9363C177.228 24.0909 177.546 24.3681 177.69 24.7908L177.783 25.0662L177.877 25.3386C177.924 25.4762 177.983 25.6047 178.052 25.7244L178.334 26.2136C178.402 26.332 178.483 26.4463 178.579 26.5554L178.963 26.9919C179.188 27.2481 179.328 27.5528 179.379 27.8875L179.423 28.1814L179.468 28.4763C179.497 28.6679 179.527 28.8574 179.559 29.0447L179.607 29.3328L179.655 29.6209C179.671 29.7119 179.701 29.7872 179.746 29.8543L180.061 30.3269C180.154 30.4675 180.256 30.6071 180.364 30.7449L180.726 31.2039C180.99 31.5399 181.069 31.9392 181.008 32.3328L180.908 32.9773C180.902 33.0156 180.904 33.0356 180.905 33.0418C180.906 33.0463 180.907 33.0473 180.907 33.0486L181.195 33.5369C181.315 33.74 181.414 33.953 181.493 34.1736L181.587 34.4373L181.682 34.7C181.744 34.8754 181.807 35.0515 181.87 35.2273L181.965 35.4919L182.059 35.7556C182.115 35.9142 182.178 36.0717 182.247 36.2273L182.361 36.4861L182.476 36.7439C182.537 36.8822 182.61 37.0204 182.696 37.158L182.852 37.408L183.009 37.658C183.209 37.9785 183.28 38.3409 183.229 38.7097L183.145 39.3103C183.133 39.39 183.142 39.4463 183.161 39.4939L183.266 39.7595L183.371 40.0242C183.425 40.1604 183.493 40.2976 183.575 40.4353L183.73 40.6921L183.885 40.949C184.055 41.2331 184.15 41.5603 184.121 41.9119L184.114 41.9988L184.267 42.0242C184.388 42.044 184.515 42.0486 184.647 42.0369L184.936 42.0105L185.225 41.9841C185.484 41.9611 185.742 41.9737 185.996 42.0212L186.553 42.1257C186.885 42.1881 187.178 42.3426 187.427 42.5564L187.917 42.9773C187.979 43.0303 188.01 43.0332 188.019 43.0339L188.581 43.0818C188.699 43.0918 188.829 43.0861 188.971 43.0613L189.271 43.0095L189.571 42.9568C189.847 42.9086 190.126 42.9034 190.4 42.947L190.679 42.991L190.959 43.0359C191.224 43.0781 191.479 43.161 191.719 43.283L192.233 43.5447C192.358 43.6082 192.485 43.6559 192.613 43.6892L193.157 43.8318C193.434 43.904 193.691 44.0277 193.923 44.196L194.163 44.3709L194.404 44.5466C194.45 44.5797 194.488 44.5921 194.532 44.5945L194.823 44.6091L195.113 44.6238C195.388 44.638 195.654 44.697 195.908 44.8005L196.17 44.907L196.431 45.0125C196.577 45.0721 196.727 45.1229 196.88 45.1648L197.424 45.3152C197.586 45.3596 197.751 45.3973 197.92 45.4294L198.201 45.4832L198.483 45.5369C198.771 45.5917 199.039 45.7022 199.282 45.865L199.521 46.0261L199.761 46.1863C199.963 46.3221 200.152 46.4796 200.327 46.656L200.54 46.8699L200.722 47.0525L201.015 47.031L201.334 47.0066C201.684 46.9798 202.034 47.0475 202.348 47.2419L202.588 47.3914L202.829 47.5408C202.977 47.6328 203.128 47.7204 203.28 47.8035L203.528 47.9392L203.775 48.074C203.982 48.1865 204.178 48.3179 204.361 48.4675L204.583 48.6492L204.807 48.8298C204.843 48.8597 204.887 48.8815 204.957 48.8914L205.254 48.9343L205.552 48.9763C205.823 49.0148 206.084 49.0921 206.328 49.2117L206.583 49.3367L206.836 49.4607C207.053 49.5669 207.257 49.695 207.447 49.8445L207.672 50.0212L207.896 50.197C208.033 50.3053 208.174 50.408 208.316 50.5066L208.779 50.8289C208.944 50.9429 209.106 51.0614 209.265 51.1834L209.489 51.3552L209.713 51.5271C209.779 51.5781 209.86 51.619 209.962 51.6462L210.251 51.7234L210.539 51.7996C210.914 51.8996 211.219 52.1251 211.429 52.447L211.595 52.7019L211.76 52.9578C211.814 53.0408 211.871 53.0924 211.929 53.1277L212.17 53.2752L212.41 53.4226C212.557 53.5126 212.709 53.5985 212.863 53.6804L213.116 53.8142L213.367 53.948C213.595 54.0688 213.804 54.218 213.991 54.3953L214.197 54.5906L214.402 54.7859C214.529 54.9061 214.658 55.0227 214.79 55.1345L215.221 55.4978C215.369 55.6234 215.516 55.7518 215.661 55.8816L215.871 56.0691L216.082 56.2576C216.288 56.4417 216.457 56.6577 216.592 56.9002L216.735 57.1609L216.851 57.365L217.158 57.4187L217.489 57.4763C217.723 57.5169 217.965 57.6203 218.161 57.821C218.355 58.0201 218.452 58.2612 218.491 58.488L218.551 58.8308L218.587 59.0388L218.751 59.0818L219.068 59.1628C219.391 59.2459 219.683 59.4175 219.897 59.6902L219.985 59.8132L220.14 60.0564L220.293 60.2986C220.416 60.4923 220.525 60.6962 220.619 60.9089L220.738 61.1794L220.847 61.4236L221.15 61.5291L221.456 61.6365C221.752 61.7402 222.023 61.9002 222.246 62.1267L222.645 62.531C222.902 62.7916 223.046 63.1154 223.103 63.4597L223.155 63.7781L223.206 64.0984C223.223 64.2008 223.254 64.2503 223.276 64.2771L223.454 64.4949L223.632 64.7107C223.739 64.8406 223.851 64.9673 223.969 65.0906L224.359 65.4998C224.505 65.6527 224.645 65.812 224.775 65.9773L224.949 66.198L225.125 66.4187C225.268 66.5993 225.395 66.7914 225.505 66.9939L225.641 67.241L225.774 67.489C225.856 67.6396 225.944 67.7877 226.035 67.9314L226.186 68.1677L226.336 68.405C226.415 68.5292 226.504 68.6486 226.605 68.7625L226.983 69.1902C227.105 69.3285 227.23 69.4668 227.356 69.6043L227.553 69.8181L227.75 70.03C228.001 70.3025 228.137 70.6359 228.168 70.9949L228.194 71.3035L228.22 71.6101C228.22 71.6178 228.222 71.6229 228.223 71.6257C228.224 71.6268 228.225 71.629 228.227 71.6306L228.668 72.0349C228.927 72.2725 229.103 72.5735 229.176 72.9216L229.235 73.2058L229.295 73.491C229.32 73.61 229.36 73.7162 229.414 73.8132L229.687 74.3064C229.832 74.5692 229.914 74.8551 229.938 75.1531L229.984 75.7449C229.985 75.7514 229.986 75.7555 229.986 75.7566L229.987 75.7576C229.988 75.7581 229.988 75.7593 229.989 75.7605C229.991 75.7634 229.996 75.7689 230.003 75.7761L230.441 76.2039C230.654 76.4113 230.824 76.6537 230.938 76.9294L231.045 77.1892L231.153 77.4509C231.233 77.6434 231.305 77.8394 231.368 78.0378L231.54 78.575C231.576 78.6883 231.63 78.7998 231.701 78.9089L232.02 79.3992C232.222 79.71 232.303 80.0623 232.271 80.4246L232.243 80.7283L232.215 81.032C232.197 81.2318 232.181 81.4297 232.165 81.6248L232.142 81.9216L232.126 82.1267L232.361 82.324L232.628 82.5466C232.903 82.7749 233.124 83.0742 233.212 83.4509L233.276 83.7273L233.341 84.0027C233.428 84.3756 233.366 84.7396 233.224 85.0652L233.085 85.3806L233.021 85.5281L233.144 85.6462L233.396 85.8865C233.558 86.0397 233.703 86.2421 233.77 86.4988C233.837 86.7597 233.807 87.0132 233.725 87.2351L233.611 87.5378L233.522 87.7752L233.661 87.9714L233.843 88.2312C233.977 88.4221 234.067 88.653 234.074 88.9128C234.081 89.168 234.006 89.3967 233.899 89.5877L233.731 89.8894L233.649 90.0369L233.76 90.1668L233.982 90.4304C234.129 90.6033 234.251 90.8261 234.284 91.0945C234.317 91.3656 234.252 91.6143 234.142 91.822L233.987 92.113L233.832 92.405C233.775 92.5125 233.762 92.5879 233.761 92.6375L233.755 92.9187L233.75 93.199C233.749 93.2627 233.763 93.3381 233.806 93.4314L234.063 93.99C234.203 94.2913 234.263 94.6182 234.222 94.9558L234.152 95.5173C234.14 95.6144 234.145 95.7147 234.17 95.822L234.235 96.1072L234.301 96.3914C234.363 96.6622 234.38 96.9381 234.348 97.2136L234.314 97.4939L234.282 97.7761C234.258 97.9794 234.227 98.182 234.19 98.3835L234.141 98.6628L234.089 98.9421C234.068 99.0558 234.064 99.1724 234.077 99.2937L234.106 99.5808L234.138 99.8689C234.171 100.185 234.126 100.494 234.007 100.788L233.897 101.058L233.787 101.329C233.741 101.442 233.715 101.552 233.705 101.663L233.681 101.944L233.656 102.226C233.632 102.501 233.562 102.767 233.447 103.018L233.328 103.282L233.207 103.546C233.174 103.618 233.161 103.689 233.163 103.766L233.18 104.342C233.186 104.557 233.183 104.772 233.169 104.986L233.149 105.271L233.131 105.557C233.114 105.81 233.067 106.058 232.987 106.298L232.898 106.566L232.809 106.836C232.72 107.104 232.583 107.349 232.407 107.572L232.218 107.812L232.029 108.052C231.95 108.151 231.9 108.247 231.869 108.337L231.686 108.864C231.641 108.993 231.609 109.129 231.589 109.269L231.55 109.551L231.51 109.832C231.493 109.952 231.491 110.087 231.508 110.238L231.541 110.549L231.575 110.858C231.619 111.261 231.509 111.649 231.238 111.966L231.042 112.194L230.848 112.422C230.72 112.571 230.593 112.721 230.47 112.869L230.28 113.095L230.093 113.321C230.089 113.326 230.086 113.33 230.085 113.332C230.084 113.333 230.083 113.334 230.083 113.335C230.083 113.335 230.08 113.345 230.08 113.368L230.081 113.674L230.084 113.98C230.086 114.217 230.072 114.45 230.042 114.68L230.005 114.973L229.967 115.266C229.907 115.729 229.633 116.071 229.271 116.283L228.977 116.455L228.703 116.615L228.668 116.844L228.625 117.137C228.569 117.521 228.379 117.849 228.083 118.093L227.849 118.285L227.646 118.452L227.639 118.747L227.631 119.064C227.624 119.361 227.566 119.652 227.448 119.925L227.335 120.186L227.223 120.448C227.07 120.8 226.805 121.057 226.486 121.226L226.199 121.379L225.993 121.488L225.978 121.717L225.955 122.039C225.928 122.428 225.77 122.792 225.458 123.065L225.237 123.258L225.019 123.449C224.914 123.54 224.825 123.638 224.751 123.741L224.424 124.199C224.304 124.367 224.178 124.53 224.046 124.688L223.865 124.904L223.685 125.121C223.546 125.286 223.398 125.444 223.242 125.594L222.833 125.986C222.743 126.072 222.666 126.168 222.601 126.274L222.452 126.516L222.305 126.758C222.144 127.019 221.93 127.233 221.673 127.397L221.177 127.713C221.066 127.783 220.974 127.862 220.897 127.947L220.523 128.361C220.445 128.448 220.377 128.55 220.317 128.667L220.053 129.187C219.931 129.428 219.774 129.646 219.584 129.837L219.387 130.035L219.188 130.233C219.1 130.322 219.021 130.424 218.951 130.54L218.65 131.036C218.498 131.289 218.3 131.504 218.059 131.675L217.592 132.003C217.402 132.136 217.202 132.255 216.99 132.357L216.727 132.484L216.486 132.601C216.485 132.604 216.483 132.606 216.482 132.609L216.381 132.919L216.279 133.229C216.166 133.574 215.957 133.88 215.633 134.09L215.155 134.398C215.036 134.475 214.925 134.564 214.823 134.662L214.414 135.054C214.209 135.252 213.971 135.406 213.708 135.515L213.438 135.628L213.169 135.739C213.007 135.806 212.85 135.88 212.699 135.957L212.445 136.088L212.191 136.217C212.127 136.25 212.07 136.296 212.019 136.365L211.665 136.836C211.475 137.088 211.234 137.288 210.945 137.422L210.686 137.542L210.427 137.661C210.37 137.687 210.318 137.728 210.268 137.794L210.087 138.03L209.906 138.267C209.709 138.526 209.455 138.726 209.151 138.852L208.887 138.963L208.621 139.072C208.461 139.138 208.304 139.21 208.151 139.286L207.897 139.412L207.645 139.538C207.517 139.601 207.396 139.676 207.281 139.762L207.055 139.932L206.828 140.103C206.628 140.254 206.412 140.378 206.182 140.475L205.659 140.695C205.552 140.74 205.453 140.801 205.359 140.878L205.137 141.058L204.914 141.241C204.692 141.422 204.442 141.557 204.169 141.642L203.896 141.727L203.623 141.814C203.385 141.889 203.137 141.935 202.884 141.955L202.583 141.978L202.281 142.003C202.279 142.003 202.277 142.003 202.275 142.003C202.274 142.004 202.272 142.006 202.271 142.008L201.862 142.455C201.652 142.685 201.398 142.864 201.102 142.974L200.574 143.172C200.461 143.214 200.351 143.271 200.246 143.345L200.011 143.511L199.775 143.678C199.561 143.83 199.329 143.95 199.082 144.034L198.549 144.216C198.415 144.261 198.283 144.32 198.157 144.39L197.909 144.53L197.66 144.67C197.371 144.832 197.055 144.905 196.729 144.899L196.426 144.893L196.123 144.888C196.083 144.888 196.066 144.895 196.046 144.91L195.81 145.086L195.573 145.261C195.232 145.514 194.831 145.586 194.437 145.512L193.806 145.394C193.737 145.381 193.718 145.394 193.716 145.395L193.21 145.652C193.032 145.743 192.852 145.829 192.671 145.912L192.412 146.03L192.154 146.147C191.951 146.24 191.743 146.318 191.529 146.382L190.989 146.542C190.777 146.605 190.559 146.654 190.34 146.687L189.784 146.772C189.675 146.789 189.568 146.823 189.461 146.875L189.201 147.002L188.942 147.127C188.651 147.269 188.337 147.331 188.015 147.31L187.723 147.292L187.444 147.273C187.44 147.276 187.434 147.28 187.427 147.286L187.181 147.493L186.936 147.701C186.578 148.003 186.128 148.097 185.678 147.957L185.374 147.862L185.069 147.767C184.937 147.726 184.827 147.712 184.734 147.716L184.452 147.726L184.171 147.736C184.174 147.736 184.175 147.735 184.169 147.737C184.162 147.74 184.141 147.752 184.106 147.782L183.601 148.226C183.288 148.501 182.882 148.65 182.432 148.571L181.849 148.469C181.756 148.453 181.675 148.457 181.6 148.476L181.049 148.619C180.696 148.71 180.344 148.675 180.019 148.547L179.726 148.43L179.482 148.334L179.259 148.468L178.989 148.629C178.606 148.858 178.169 148.889 177.757 148.716L177.468 148.594L177.18 148.473C177.168 148.468 177.16 148.466 177.155 148.465C177.154 148.464 177.153 148.464 177.152 148.464C177.152 148.464 177.15 148.465 177.147 148.466L176.869 148.56L176.592 148.655C176.272 148.765 175.938 148.78 175.608 148.699L175.043 148.559C174.956 148.538 174.875 148.535 174.796 148.55L174.517 148.601L174.236 148.653C174.125 148.674 174.002 148.714 173.869 148.779L173.586 148.918L173.303 149.057C173.004 149.204 172.677 149.275 172.336 149.243L172.054 149.218L171.771 149.19C171.539 149.168 171.308 149.126 171.08 149.063L170.8 148.985L170.521 148.908C170.42 148.88 170.322 148.871 170.224 148.88L169.94 148.906L169.655 148.93C169.294 148.962 168.954 148.872 168.653 148.694L168.113 148.374C168.101 148.367 168.092 148.363 168.087 148.361C168.082 148.359 168.08 148.358 168.079 148.358H168.078C168.077 148.358 168.075 148.359 168.073 148.359L167.787 148.411L167.5 148.464C167.25 148.509 166.998 148.525 166.747 148.508L166.185 148.469C165.956 148.454 165.729 148.419 165.505 148.366L165.23 148.3L164.954 148.234C164.791 148.195 164.626 148.164 164.462 148.138L164.184 148.095L163.907 148.052C163.631 148.01 163.367 147.919 163.121 147.784L162.86 147.641L162.641 147.521L162.35 147.63L162.043 147.743C161.72 147.863 161.371 147.901 161.02 147.813L160.746 147.746L160.472 147.677C160.311 147.636 160.149 147.603 159.985 147.578L159.705 147.535L159.426 147.491C159.235 147.461 159.044 147.429 158.854 147.395L158.574 147.345L158.296 147.297C158.072 147.257 157.852 147.199 157.637 147.125L157.369 147.032L157.1 146.94C156.93 146.882 156.759 146.826 156.588 146.773L156.318 146.69L156.048 146.608C155.786 146.528 155.542 146.404 155.318 146.244L155.076 146.07L154.834 145.898C154.731 145.825 154.63 145.774 154.53 145.741L154.264 145.654L153.998 145.567C153.787 145.498 153.58 145.414 153.38 145.316L153.125 145.192L152.872 145.067C152.788 145.026 152.697 145 152.595 144.991L152.307 144.967L152.019 144.941C151.681 144.912 151.372 144.788 151.105 144.582L150.874 144.403L150.671 144.246L150.349 144.301L150.025 144.356C149.625 144.425 149.215 144.346 148.874 144.07L148.646 143.886L148.418 143.7C148.316 143.617 148.211 143.554 148.104 143.507L147.847 143.393L147.589 143.281C147.499 143.241 147.395 143.214 147.273 143.204L146.975 143.179L146.677 143.156C146.334 143.128 146.019 143.005 145.741 142.813L145.634 142.737L145.62 142.763C145.506 142.987 145.368 143.195 145.208 143.385L145.024 143.6L144.843 143.818C144.615 144.088 144.318 144.265 143.989 144.358L143.688 144.443L143.395 144.526L143.261 144.774L143.119 145.04C143.01 145.244 142.888 145.44 142.756 145.626L142.416 146.102C142.269 146.309 142.1 146.495 141.908 146.659L141.477 147.027C141.19 147.272 140.845 147.389 140.491 147.413L140.158 147.435L139.894 147.453L139.785 147.644L139.631 147.913C139.492 148.157 139.319 148.376 139.111 148.561L138.897 148.752L138.686 148.942C138.441 149.16 138.152 149.301 137.836 149.369L137.542 149.432L137.248 149.495C137.13 149.52 137.032 149.561 136.949 149.611L136.471 149.906C136.32 149.999 136.17 150.094 136.022 150.193L135.555 150.508C135.433 150.589 135.314 150.683 135.199 150.79L134.984 150.989L134.771 151.189C134.551 151.394 134.295 151.546 134.009 151.64L133.736 151.73L133.465 151.819C133.295 151.875 133.127 151.934 132.962 151.997L132.434 152.198C132.318 152.242 132.207 152.302 132.102 152.377L131.632 152.711C131.449 152.841 131.258 152.958 131.062 153.062L130.559 153.33C130.214 153.513 129.84 153.543 129.483 153.472L129.157 153.408L128.884 153.353L128.719 153.511L128.496 153.72C128.205 153.996 127.837 154.141 127.431 154.127L127.13 154.116L126.831 154.104C126.667 154.098 126.511 154.106 126.362 154.123L126.08 154.156L125.799 154.188C125.752 154.194 125.701 154.21 125.641 154.256L125.4 154.438L125.16 154.619C124.97 154.762 124.772 154.89 124.565 155L124.308 155.137L124.052 155.275C123.808 155.405 123.548 155.492 123.276 155.535L122.996 155.578L122.717 155.623C122.57 155.646 122.425 155.679 122.282 155.725L122.011 155.815L121.739 155.903C121.531 155.971 121.318 156.027 121.104 156.069L120.825 156.125L120.547 156.179C120.322 156.224 120.093 156.251 119.863 156.259L119.579 156.268L119.294 156.278C119.009 156.288 118.728 156.244 118.455 156.155L118.16 156.058L117.864 155.963C117.839 155.954 117.826 155.954 117.824 155.954C117.823 155.954 117.818 155.955 117.81 155.959L117.539 156.067L117.268 156.177C117.069 156.256 116.869 156.329 116.666 156.393L116.39 156.481L116.113 156.568C115.683 156.704 115.268 156.612 114.925 156.4L114.635 156.221L114.344 156.043C114.3 156.016 114.272 156.004 114.259 156.001C114.253 155.999 114.249 156 114.247 156H114.246L113.688 156.056C113.517 156.074 113.346 156.097 113.175 156.125L112.615 156.218C112.467 156.242 112.314 156.277 112.158 156.327L111.592 156.508C111.327 156.592 111.056 156.632 110.779 156.625L110.214 156.61C110.051 156.606 109.886 156.61 109.721 156.622L109.436 156.642L109.15 156.664C108.919 156.681 108.687 156.679 108.456 156.657L108.174 156.631L107.892 156.602C107.619 156.576 107.356 156.505 107.105 156.392L106.563 156.151C106.45 156.101 106.343 156.072 106.238 156.06L105.678 156C105.536 155.984 105.39 155.982 105.24 155.992L104.95 156.012L104.66 156.032C104.276 156.059 103.921 155.943 103.622 155.722L103.372 155.538L103.121 155.353C103.007 155.269 102.899 155.212 102.799 155.177L102.267 154.988C102.194 154.962 102.114 154.951 102.018 154.959L101.723 154.983L101.428 155.007C101.107 155.033 100.792 154.979 100.498 154.843L100.239 154.723L99.9815 154.602C99.8123 154.524 99.6431 154.447 99.4746 154.371L98.959 154.139C98.8632 154.096 98.7617 154.069 98.6514 154.058L98.3652 154.03L98.0791 154.003C97.8084 153.976 97.5472 153.908 97.2998 153.796L97.043 153.678L96.7861 153.563C96.6421 153.498 96.4949 153.442 96.3447 153.394L96.0772 153.309L95.8086 153.224C95.6748 153.182 95.5333 153.151 95.3838 153.132L94.8057 153.057C94.579 153.029 94.356 152.985 94.1377 152.926L93.585 152.775C93.1959 152.669 92.9004 152.421 92.6963 152.108L92.5156 151.831L92.335 151.552C92.2605 151.438 92.1903 151.373 92.1338 151.336L91.6651 151.027C91.609 150.99 91.541 150.962 91.4492 150.95L91.1543 150.911L90.8584 150.871C90.5363 150.828 90.2363 150.707 89.9766 150.505L89.752 150.331L89.5283 150.156C89.4039 150.059 89.2752 149.971 89.1426 149.892L88.9014 149.75L88.6602 149.606C88.6186 149.582 88.5522 149.557 88.4414 149.552L88.1201 149.534L87.7979 149.516C87.5697 149.504 87.3349 149.437 87.126 149.287C86.9189 149.138 86.7815 148.94 86.6943 148.737L86.5606 148.427L86.4277 148.118C86.419 148.097 86.4116 148.085 86.4072 148.078L86.1611 147.97L85.8994 147.857C85.6952 147.768 85.4981 147.666 85.3086 147.552L85.0664 147.406L84.8252 147.261C84.6996 147.185 84.5643 147.117 84.419 147.058L84.1475 146.948L83.876 146.839C83.4974 146.685 83.227 146.399 83.0713 146.042L82.8184 145.461C82.813 145.448 82.8091 145.44 82.8067 145.436H82.8076L82.541 145.319L82.2735 145.2C82.008 145.082 81.7714 144.918 81.5713 144.707L81.1826 144.298C81.0866 144.196 80.9803 144.105 80.8652 144.023L80.6338 143.857L80.4033 143.693C80.2008 143.549 80.0179 143.382 79.8555 143.194L79.4854 142.766C79.4132 142.683 79.3277 142.609 79.2256 142.546L78.9776 142.392L78.7315 142.239C78.534 142.116 78.347 141.98 78.1729 141.829L77.957 141.642L77.7422 141.455C77.4303 141.185 77.2768 140.824 77.2324 140.451L77.1514 139.771C77.1497 139.758 77.1482 139.747 77.1465 139.74L76.9434 139.583L76.7178 139.407C76.6156 139.327 76.4937 139.252 76.3496 139.184L76.0645 139.05L75.7803 138.917C75.4884 138.779 75.2333 138.58 75.0401 138.313L74.874 138.084L74.707 137.853C74.5719 137.667 74.4522 137.47 74.3486 137.262L74.2197 137.006L74.0928 136.749C74.034 136.631 73.9624 136.523 73.8789 136.425L73.5108 135.992C73.2924 135.735 73.1662 135.431 73.1172 135.106L72.8828 135.263L72.6465 135.424C72.5058 135.518 72.3707 135.618 72.2412 135.721L72.0215 135.898L71.8027 136.073C71.7217 136.138 71.6486 136.219 71.584 136.318L71.4238 136.563L71.2647 136.809C71.0422 137.152 70.7102 137.363 70.3281 137.446L70.0205 137.513L69.8125 137.558L69.7256 137.795L69.6133 138.108C69.5401 138.312 69.4194 138.512 69.2324 138.672C69.0436 138.833 68.8234 138.922 68.6016 138.958L68.2891 139.008L68.0059 139.052L67.8643 139.283L67.7041 139.546C67.5608 139.779 67.3883 139.989 67.1846 140.168L66.9688 140.356L66.7539 140.545C66.5465 140.727 66.3128 140.87 66.0567 140.973L65.791 141.08L65.5235 141.187C65.2873 141.282 65.04 141.348 64.7842 141.385L64.4854 141.427L64.1846 141.47C64.1748 141.472 64.1684 141.473 64.1651 141.474C64.1619 141.475 64.1597 141.476 64.1592 141.476C64.1586 141.477 64.1578 141.478 64.1563 141.479C64.1543 141.481 64.1509 141.485 64.1455 141.491L63.751 141.94C63.5093 142.216 63.1952 142.396 62.8311 142.461L62.541 142.512L62.251 142.563C62.0984 142.59 61.9551 142.629 61.8213 142.677L61.5567 142.773L61.293 142.867C61.2325 142.889 61.1694 142.928 61.1026 142.997L60.8926 143.214L60.6817 143.431C60.5063 143.613 60.3155 143.773 60.1094 143.911L59.8692 144.072L59.6299 144.232C59.3112 144.445 58.9483 144.521 58.583 144.484L58.2695 144.451L57.9561 144.42C57.8318 144.407 57.7361 144.418 57.6621 144.44L57.3945 144.521L57.126 144.6C57.0705 144.617 57.0043 144.651 56.9287 144.721L56.7022 144.934L56.4746 145.147C56.2395 145.367 55.9608 145.529 55.6416 145.608L55.3672 145.677L55.0918 145.745C54.8525 145.804 54.6078 145.835 54.3594 145.84L54.0693 145.844L53.7793 145.85C53.6225 145.853 53.4706 145.867 53.3242 145.891L53.0459 145.939L52.7695 145.985C52.6109 146.012 52.4538 146.048 52.2988 146.092L52.0274 146.168L51.7568 146.243C51.6309 146.278 51.5032 146.33 51.374 146.398L50.8506 146.677C50.5224 146.852 50.1607 146.903 49.7979 146.832L49.5039 146.775L49.21 146.718C49.0462 146.686 48.8874 146.665 48.7344 146.657L48.4502 146.641L48.167 146.626C48.0783 146.621 47.9913 146.633 47.9024 146.665L47.6309 146.761L47.3584 146.858C47.0885 146.954 46.8078 146.997 46.5215 146.985L46.2383 146.972L45.957 146.962C45.7702 146.954 45.5832 146.946 45.3975 146.939L44.836 146.918C44.7153 146.913 44.5932 146.925 44.4688 146.953L44.1885 147.016L43.9092 147.08C43.7067 147.126 43.5027 147.165 43.2988 147.197L43.0176 147.242L42.7363 147.286C42.4187 147.336 42.1035 147.303 41.8037 147.195L41.5254 147.094L41.2461 146.993C41.1714 146.966 41.1075 146.961 41.0449 146.969L40.4795 147.051C40.262 147.081 40.043 147.099 39.8242 147.104L39.5401 147.112L39.2568 147.118C39.066 147.123 38.874 147.127 38.6826 147.131L38.3985 147.135L38.1133 147.14C37.7868 147.146 37.4766 147.065 37.1934 146.911L36.9287 146.766L36.6709 146.627L36.668 146.628L36.3682 146.717L36.0674 146.805C35.7528 146.898 35.4239 146.916 35.0977 146.836L34.5469 146.7C34.2051 146.616 33.9161 146.429 33.6797 146.188L33.4443 145.949L33.4141 145.918L112.713 120.379C115.995 119.278 118.483 116.986 120.176 113.502C121.868 110.018 122.252 106.32 121.329 102.408C120.406 98.4959 118.483 95.5306 115.56 93.5134C112.636 91.4964 109.533 91.0382 106.251 92.1384L80.0947 100.574L34.0908 54.5457L33.1152 54.8562L33.0723 54.7947C32.8819 54.5217 32.7543 54.2096 32.7276 53.866L32.7051 53.5818L32.6836 53.2986C32.6549 52.9292 32.7559 52.5849 32.9404 52.2849L33.1104 52.0085L33.2735 51.7449L33.1943 51.4968L33.1045 51.2097C32.9916 50.8513 33.0062 50.48 33.1563 50.1306L33.3887 49.5896C33.3955 49.5738 33.3998 49.5605 33.3887 49.5203L33.2246 48.9275C33.1443 48.6385 33.1197 48.3409 33.1621 48.0427L33.2031 47.7605L33.2422 47.4793C33.2933 47.1211 33.4582 46.8113 33.6914 46.5564L33.9121 46.3152L34.1318 46.0759C34.1992 46.0024 34.2129 45.9552 34.2168 45.9334L34.2656 45.6589L34.3154 45.3835C34.3496 45.1939 34.3866 45.0037 34.4258 44.8142L34.4824 44.5398L34.5401 44.2654C34.5779 44.0823 34.6152 43.898 34.6533 43.7136L34.711 43.4373L34.7686 43.1599C34.8144 42.9382 34.8771 42.7211 34.9561 42.5095L35.0537 42.2468L35.1514 41.9822C35.2505 41.7168 35.3976 41.4771 35.585 41.2644L35.9756 40.822C36.0094 40.7836 36.0249 40.7491 36.0313 40.7039L36.1113 40.1248C36.1594 39.7816 36.3054 39.4725 36.541 39.2175L36.7383 39.0037L36.9365 38.7898C37.0011 38.7198 37.0448 38.6472 37.0733 38.5681L37.169 38.3015L37.2647 38.0359C37.3485 37.8022 37.4595 37.5819 37.5967 37.3757L37.751 37.1423L37.9063 36.9099C37.9352 36.8665 37.9628 36.8007 37.9746 36.6951L38.0449 36.0681C38.0807 35.7481 38.1863 35.4427 38.375 35.1736L38.5381 34.9412L38.7002 34.7087C38.8532 34.4906 39.0378 34.2988 39.249 34.1345L39.4805 33.9548L39.7119 33.7742C39.8173 33.6922 39.9064 33.603 39.9805 33.5066L40.1514 33.283L40.3242 33.0593C40.5093 32.8187 40.7415 32.6296 41.0088 32.49L41.2754 32.3513L41.4736 32.2459L41.5235 31.9441L41.5781 31.6082C41.6476 31.1824 41.8825 30.7973 42.3145 30.5877L42.584 30.4568L42.8526 30.3269C43.0016 30.2547 43.1394 30.1755 43.2656 30.0906L43.7363 29.7742C43.8295 29.7116 43.9123 29.6349 43.9844 29.5447L44.1621 29.321L44.3418 29.0974C44.5375 28.8526 44.7831 28.6647 45.0693 28.5388L45.336 28.4216L45.6006 28.3054C45.6947 28.2641 45.7738 28.21 45.8408 28.1433L46.041 27.9431L46.2422 27.7429C46.3851 27.6008 46.5324 27.4621 46.6826 27.3269L47.1055 26.946C47.3237 26.7497 47.5756 26.6033 47.8535 26.5095L48.127 26.4177L48.4014 26.3259C48.4209 26.3193 48.445 26.3067 48.4805 26.2566L48.6611 26.0017L48.8408 25.7468C49.0565 25.441 49.3588 25.2197 49.7344 25.1257L50.0176 25.0554L50.3018 24.9841C50.5051 24.9333 50.7094 24.8875 50.9151 24.8494L51.2022 24.7976L51.4883 24.7439C51.5666 24.7293 51.6324 24.7006 51.6934 24.655L51.9248 24.4812L52.1563 24.3084C52.3422 24.1693 52.5379 24.0457 52.7422 23.9392L52.9942 23.8084L53.2461 23.6765C53.5222 23.5327 53.8208 23.4603 54.1299 23.4558L54.7236 23.448C54.7983 23.4469 54.856 23.4296 54.9092 23.3992L55.4102 23.113C55.6482 22.9769 55.9036 22.882 56.1729 22.8318L56.4502 22.78L56.7276 22.7293C56.8707 22.7026 57.0123 22.6631 57.1504 22.6121L57.416 22.5134L57.6836 22.4148C57.9639 22.3113 58.2574 22.2714 58.5547 22.2927L59.1348 22.3337C59.2429 22.3415 59.343 22.3316 59.4375 22.3044L59.9815 22.1482C60.129 22.1058 60.279 22.0514 60.4297 21.9851L60.7002 21.865L60.9717 21.7468C61.2204 21.6375 61.4801 21.5668 61.749 21.5388L62.0322 21.5085L62.3145 21.4802C62.55 21.4557 62.7876 21.4527 63.0244 21.4724L63.5957 21.5203C63.8185 21.5388 64.0403 21.5719 64.2598 21.6189L64.542 21.6794L64.8252 21.74C65.0285 21.7835 65.2309 21.8327 65.4307 21.8884L65.708 21.9666L65.9717 22.0388C65.9782 22.0365 65.9891 22.0335 66.0029 22.0261L66.2959 21.8709L66.5879 21.7156C66.9122 21.5437 67.2822 21.4675 67.667 21.5486L67.9463 21.6082L68.2266 21.6658C68.4267 21.7079 68.6252 21.7561 68.8223 21.8093L69.0986 21.8845L69.3731 21.9587C69.5089 21.9954 69.6473 22.018 69.7871 22.0271L70.0713 22.0457L70.3545 22.0642C70.7143 22.0877 71.0362 22.2271 71.3067 22.4451L71.5518 22.6423L71.7959 22.8406C71.8953 22.9207 71.9843 22.9643 72.0606 22.988L72.3252 23.071L72.5918 23.1541C72.7804 23.2128 72.968 23.276 73.1533 23.3435L73.6758 23.5339C73.6879 23.5383 73.7302 23.5515 73.8281 23.5281L74.1485 23.4509L74.4707 23.3738C74.6927 23.3207 74.9429 23.3173 75.1924 23.408C75.379 23.4759 75.5323 23.584 75.6543 23.7107L75.7656 23.8435L75.9649 24.1091L76.166 24.3757C76.1922 24.4106 76.2095 24.4259 76.2158 24.4304C76.217 24.4313 76.2181 24.432 76.2188 24.4324L76.4922 24.5007L76.7637 24.5681C76.8992 24.6019 77.0467 24.6251 77.2051 24.6355L77.5049 24.656L77.8047 24.6746C78.1079 24.6945 78.3994 24.7761 78.667 24.9246L79.1611 25.198C79.3627 25.3098 79.5544 25.4384 79.7354 25.5828L79.958 25.7615L80.1817 25.9382C80.2913 26.0257 80.4069 26.1009 80.5283 26.1628L81.0303 26.4187C81.2743 26.5431 81.4932 26.7067 81.6826 26.905L82.0791 27.321C82.197 27.4445 82.3181 27.56 82.4414 27.6687L82.6514 27.8543L82.8613 28.0388C82.8897 28.0638 82.936 28.0928 83.0254 28.1101L83.332 28.1687L83.6397 28.2293C83.9355 28.2864 84.2145 28.3965 84.4639 28.5681L84.6992 28.7293L84.9326 28.8904C85.2132 29.0836 85.4184 29.3461 85.5527 29.6502L85.6777 29.9324L85.8027 30.2156C85.8415 30.3034 85.8851 30.3536 85.9258 30.3855L86.1465 30.5584L86.3672 30.7322C86.5181 30.8504 86.6689 30.971 86.8184 31.0925L87.0371 31.2693L87.2207 31.4177L87.2402 31.4158L87.2451 31.3826L87.2959 31.0994C87.339 30.854 87.4093 30.6165 87.5078 30.3894L87.7324 29.8738C87.8325 29.6434 87.9605 29.4276 88.1152 29.2283L88.4668 28.7752C88.5091 28.7205 88.5375 28.6602 88.5518 28.5837L88.6045 28.2966L88.6592 28.0085C88.7001 27.7902 88.7522 27.5753 88.8164 27.365L88.9014 27.0896L88.9854 26.8142C89.0909 26.4696 89.2995 26.1869 89.5801 25.9753L89.8242 25.7918L90.0693 25.6062C90.1956 25.5109 90.3034 25.412 90.3936 25.3103L90.582 25.0984L90.7705 24.8845C90.8145 24.8348 90.8471 24.7768 90.8672 24.699L91.0137 24.1296C91.075 23.8917 91.1598 23.6633 91.2676 23.446L91.3926 23.1912L91.5195 22.9382C91.6227 22.7304 91.7426 22.5328 91.8799 22.3464L92.0469 22.1199L92.2149 21.8923C92.3356 21.7285 92.4618 21.5687 92.5928 21.4128L92.7735 21.197L92.9551 20.9812C93.0999 20.8088 93.2571 20.6472 93.4268 20.4968L93.8545 20.1179C93.9274 20.0534 93.9847 19.9792 94.0293 19.8923L94.291 19.3845C94.4068 19.1591 94.5484 18.9505 94.7168 18.7625L95.0918 18.3435C95.1596 18.2678 95.2191 18.1776 95.2666 18.0671L95.3828 17.7947L95.5 17.5232L95.5733 17.3777C95.7596 17.0528 96.057 16.8384 96.4033 16.7341L96.7168 16.6404L97.0293 16.5457C97.0456 16.5407 97.0553 16.5356 97.0606 16.533L97.1953 16.2966L97.3389 16.0466C97.4084 15.9256 97.471 15.788 97.5244 15.6316L97.7276 15.0369C97.8707 14.6178 98.1786 14.311 98.6006 14.1716L99.1943 13.9763C99.3423 13.9275 99.469 13.8679 99.5772 13.8015L99.8203 13.6531L100.063 13.5027C100.135 13.4587 100.194 13.4032 100.245 13.3298L100.573 12.8543C100.701 12.6697 100.84 12.4948 100.988 12.3298L101.179 12.1179L101.369 11.908C101.553 11.7042 101.767 11.5347 102.008 11.4031L102.259 11.2654L102.509 11.1296C102.702 11.024 102.902 10.9285 103.108 10.8455L103.379 10.7371L103.633 10.6355C103.635 10.6311 103.64 10.6245 103.644 10.616L103.774 10.3201L103.906 10.0232C104.032 9.74014 104.208 9.48604 104.443 9.28003L104.657 9.09156L104.872 8.90406L104.991 8.81031C105.275 8.60974 105.605 8.53106 105.932 8.53589L106.272 8.54175L106.444 8.54371L106.513 8.37671L106.644 8.05835C106.817 7.63798 107.164 7.31176 107.666 7.23999L107.969 7.19703L108.272 7.15406C108.424 7.13243 108.559 7.09643 108.681 7.05054L108.946 6.95093L109.212 6.85035C109.226 6.84507 109.256 6.83221 109.298 6.76929L109.476 6.50464L109.653 6.24097C109.833 5.97307 110.068 5.74954 110.362 5.59839L110.613 5.46949L110.865 5.33863C111.166 5.18411 111.492 5.12743 111.819 5.14429L112.14 5.16089L112.461 5.17749C112.586 5.18388 112.675 5.16668 112.74 5.14234L113.002 5.04371L113.265 4.9441C113.422 4.88496 113.576 4.82033 113.728 4.74976L113.981 4.6316L114.234 4.51441C114.437 4.41988 114.648 4.34036 114.863 4.2771L115.401 4.1189C115.402 4.11824 115.404 4.1168 115.406 4.11499C115.415 4.10825 115.436 4.08974 115.465 4.04956L115.661 3.77222L115.857 3.4939C116.097 3.1548 116.456 2.90911 116.918 2.88355L117.211 2.86695L117.504 2.8523C117.714 2.84069 117.924 2.83366 118.135 2.83374H118.676L118.887 2.5896L119.105 2.33667L119.226 2.21265C119.355 2.09516 119.514 1.9971 119.702 1.94117C119.891 1.88513 120.078 1.88138 120.252 1.90992L120.42 1.948L120.738 2.04175L120.993 2.11695L121.167 1.97535L121.406 1.77906C121.679 1.55574 122.005 1.43446 122.356 1.44117L122.51 1.45288L122.806 1.48804L123.103 1.52417C123.178 1.53323 123.235 1.52393 123.286 1.50269L123.815 1.28394C124.064 1.18125 124.323 1.11898 124.591 1.09839L124.871 1.07691L125.153 1.05445C125.359 1.03863 125.566 1.02995 125.772 1.02906H126.057L126.342 1.0271C126.48 1.02647 126.615 1.01302 126.747 0.985111L127.021 0.925541L127.296 0.867924C127.548 0.814588 127.804 0.797184 128.062 0.815189L128.346 0.835697L128.601 0.853275C128.608 0.848534 128.619 0.841294 128.634 0.828861L128.896 0.602299L129.159 0.376713C129.335 0.224957 129.566 0.0992053 129.847 0.0720254C130.128 0.0448896 130.381 0.125151 130.585 0.244877L130.878 0.416752L131.167 0.58765L131.396 0.508549L131.553 0.455814C131.573 0.422806 131.595 0.388471 131.622 0.357182C131.752 0.206107 131.907 0.144103 132.001 0.117924C132.169 0.0711337 132.315 0.0919954 132.359 0.0983925C132.481 0.115783 132.607 0.156124 132.704 0.190189L132.976 0.284916L133.247 0.378666C133.301 0.397381 133.347 0.401333 133.4 0.390385L133.681 0.332768L133.96 0.274174C134.146 0.235902 134.335 0.197403 134.523 0.157963L134.807 0.0993691L135.091 0.0397988ZM48.0918 110.843L26.5518 117.628L9.31935 100.39L0.39552 103.27C0.425886 103.205 0.433578 103.161 0.433606 103.132L0.434583 102.573C0.434623 102.503 0.41878 102.416 0.371106 102.307L0.24513 102.019L0.118177 101.731C-0.062617 101.318 -0.0355007 100.877 0.196302 100.489L0.516614 99.9509C0.545743 99.9021 0.542276 99.8837 0.541028 99.8738L0.504895 99.5877L0.470716 99.3025C0.428625 98.9638 0.486605 98.6338 0.635755 98.3298L0.764661 98.0652L0.89552 97.8005C0.942214 97.7053 0.964964 97.6156 0.971692 97.5291L0.993177 97.2498L1.01564 96.9705C1.02372 96.8654 1.01593 96.7481 0.986341 96.616L0.919934 96.3181L0.853528 96.0193C0.775083 95.6687 0.80564 95.312 0.961927 94.9783L1.084 94.7166L1.20607 94.4558C1.21613 94.4343 1.22427 94.4053 1.2129 94.3445L1.15626 94.0398L1.09962 93.7361C1.04174 93.426 1.05193 93.1108 1.14454 92.8044L1.2256 92.533L1.30861 92.2615C1.41755 91.9011 1.6454 91.6172 1.92384 91.4021L2.1963 91.1902L2.45509 90.9919L2.45704 90.7673L2.45997 90.4744C2.46335 90.1391 2.55801 89.8207 2.7422 89.5378L2.89845 89.2966L3.05568 89.0554C3.06672 89.0384 3.07733 89.015 3.07423 88.9568L3.05861 88.6482L3.04103 88.3396C3.01693 87.8926 3.19611 87.4954 3.53419 87.2127L3.7754 87.0115L4.01661 86.8093C4.10556 86.735 4.15496 86.6664 4.18263 86.6082L4.30177 86.3572L4.42189 86.1052C4.4738 85.9959 4.51342 85.877 4.53908 85.7468L4.59376 85.4627L4.6504 85.1785C4.71606 84.8452 4.87287 84.5498 5.10939 84.3074L5.31349 84.0984L5.51661 83.8894C5.5186 83.8874 5.5201 83.886 5.52052 83.8855C5.52164 83.8817 5.52354 83.8714 5.52443 83.8543L5.54005 83.5427L5.55568 83.2302L5.57228 83.0681C5.63204 82.6987 5.83194 82.382 6.15138 82.1628L6.66115 81.8132C6.66214 81.8126 6.66325 81.8119 6.66408 81.8113L6.71974 81.5232L6.77833 81.2293C6.84708 80.8808 7.01565 80.5708 7.28322 80.3289L7.49904 80.1355L7.7129 79.9421C7.78917 79.8732 7.84682 79.797 7.88966 79.7127L8.01759 79.4597L8.14552 79.2078C8.28196 78.9386 8.47268 78.7082 8.70997 78.5232L8.93849 78.3455L9.13087 78.1951C9.13097 78.1939 9.1308 78.1925 9.13087 78.1912L9.15431 77.8503L9.17579 77.5105L9.19728 77.3416C9.26665 76.9552 9.4874 76.6133 9.87697 76.4128L10.1494 76.2732L10.4229 76.1316C10.4275 76.1292 10.4306 76.1271 10.4326 76.1257C10.4334 76.1242 10.4353 76.1214 10.4365 76.1179L10.6436 75.5496C10.7755 75.1868 11.0244 74.8991 11.3682 74.7185L11.6328 74.5789L11.8985 74.4402C11.9999 74.3869 12.0773 74.3247 12.1377 74.2566L12.5108 73.8357C12.6257 73.7061 12.7369 73.5719 12.8457 73.4343L13.1983 72.989C13.3766 72.7635 13.5939 72.5782 13.8438 72.4363L14.0957 72.2947L14.3467 72.1511C14.4294 72.1041 14.4963 72.0456 14.5527 71.9734L14.7295 71.7478L14.9053 71.5232C15.0859 71.292 15.3079 71.103 15.5654 70.9627L15.8164 70.8259L16.0684 70.6892C16.2031 70.6158 16.3298 70.5337 16.4473 70.4441L16.8926 70.1043C17.0628 69.9745 17.2402 69.8537 17.4238 69.7429L17.6641 69.5984L17.9053 69.4529C18.0587 69.3603 18.2101 69.2647 18.3594 69.1677L18.8281 68.863C18.9395 68.7906 19.045 68.7062 19.1436 68.6082L19.3467 68.406L19.5488 68.2048C19.6631 68.091 19.7748 67.9656 19.8828 67.8308L20.2559 67.366L20.3643 67.2449C20.4246 67.1849 20.4889 67.1319 20.5567 67.0857L48.0918 110.843Z" fill="#3D4F7E"/>
</svg>
